<svg id="Layer_1" data-name="Layer 1" xmlns="http://www.w3.org/2000/svg" viewBox="0 0 574 574"><defs><style>.cls-1{fill:#00a0c0;}.cls-2{fill:#fff;}.cls-3{fill:none;stroke:#fff;stroke-miterlimit:10;stroke-width:10px;}</style></defs><title>auv_logo_white_blue</title><path class="cls-1" d="M530.27,144.3A280.57,280.57,0,0,1,569,287c0,155.74-126.26,282-282,282S5,442.74,5,287A280.73,280.73,0,0,1,43.6,144.5c33.46,4.05,36.31,31.5,75.06,31.5,41.83,0,41.83-32,83.67-32s41.83,32,83.66,32,41.83-32,83.67-32,41.83,32,83.67,32C492.79,176,495,147.53,530.27,144.3Z"/><path class="cls-2" d="M530.27,144.3C495,147.53,492.79,176,453.33,176c-41.84,0-41.84-32-83.67-32S327.82,176,286,176s-41.83-32-83.66-32-41.84,32-83.67,32c-38.75,0-41.6-27.45-75.06-31.5a282.08,282.08,0,0,1,486.67-.2Z"/><path class="cls-3" d="M530.27,144.3A280.57,280.57,0,0,1,569,287c0,155.74-126.26,282-282,282S5,442.74,5,287A282,282,0,0,1,530.27,144.3Z"/><path class="cls-2" d="M211.65,390.27H182.83a13.35,13.35,0,0,1-8-2.25,11.62,11.62,0,0,1-4.34-5.78l-9.46-27.94H100.11l-9.46,27.94a12.72,12.72,0,0,1-12.1,8h-29l62-160.27h38.06ZM108.69,329h43.78l-14.74-43.89c-1-2.78-2.08-6.07-3.36-9.84s-2.55-7.87-3.79-12.27q-1.77,6.72-3.63,12.43t-3.52,9.9Z"/><path class="cls-2" d="M280.29,360.9a34.18,34.18,0,0,0,13.36-2.47,27.14,27.14,0,0,0,10-7.1,31.44,31.44,0,0,0,6.21-11.27A49.26,49.26,0,0,0,312,324.93V230h37.18v94.93A74.11,74.11,0,0,1,344.36,352a60.63,60.63,0,0,1-13.69,21.23A61.86,61.86,0,0,1,309,387.08a86.05,86.05,0,0,1-57.53,0,61.77,61.77,0,0,1-21.67-13.86A60,60,0,0,1,216.16,352a74.74,74.74,0,0,1-4.73-27.06V230h37.18v94.82A49.28,49.28,0,0,0,250.75,340,31.92,31.92,0,0,0,257,351.28a26.81,26.81,0,0,0,9.95,7.15A34.2,34.2,0,0,0,280.29,360.9Z"/><path class="cls-2" d="M360.15,230h29.92a13.38,13.38,0,0,1,7.92,2.2,12.09,12.09,0,0,1,4.4,5.83l31,85.8q2.08,5.61,4.23,12.21t4,13.86q1.53-7.26,3.57-13.86t4-12.21l30.8-85.8a12.76,12.76,0,0,1,12.1-8h30.14L458.05,390.27H424.39Z"/><path class="cls-1" d="M213.85,78.49h2.59q3.6,0,5.18-2.26l15.75-22.85a6.75,6.75,0,0,1,2.95-2.54,10.74,10.74,0,0,1,4.06-.67h14.11L237.75,78.44a14,14,0,0,1-2.3,2.54A14.26,14.26,0,0,1,233,82.66a12.67,12.67,0,0,1,3.34,1.85,12.4,12.4,0,0,1,2.75,3.14l21.13,32.45h-14.5a12.52,12.52,0,0,1-2.38-.19,6.06,6.06,0,0,1-1.7-.58,4.68,4.68,0,0,1-1.25-.93,9.55,9.55,0,0,1-1-1.27L223.54,92.79a4.71,4.71,0,0,0-2.18-1.89,9.41,9.41,0,0,0-3.58-.56h-3.93V120.1H197.62V50.17h16.23Z"/><path class="cls-1" d="M305.14,64.38a6.07,6.07,0,0,1-1.51,1.72,3.35,3.35,0,0,1-2,.58,4.94,4.94,0,0,1-2.38-.7l-2.88-1.56a24.84,24.84,0,0,0-3.67-1.56,14.76,14.76,0,0,0-4.7-.69c-3,0-5.31.64-6.79,1.94a6.62,6.62,0,0,0-2.24,5.26,4.82,4.82,0,0,0,1.35,3.5,11.41,11.41,0,0,0,3.53,2.4,37.85,37.85,0,0,0,5,1.85q2.81.84,5.73,1.87a50.62,50.62,0,0,1,5.74,2.43,18.86,18.86,0,0,1,5,3.55,16.6,16.6,0,0,1,3.53,5.25,18.68,18.68,0,0,1,1.34,7.47,24.33,24.33,0,0,1-1.68,9.07,21.22,21.22,0,0,1-4.87,7.37,22.7,22.7,0,0,1-7.87,4.94,29.43,29.43,0,0,1-10.63,1.8,33.94,33.94,0,0,1-6.65-.67,39.11,39.11,0,0,1-6.55-1.9,37.27,37.27,0,0,1-5.95-2.9,24.86,24.86,0,0,1-4.85-3.75l4.8-7.58a3.92,3.92,0,0,1,1.49-1.39,4.21,4.21,0,0,1,2.06-.53,5.5,5.5,0,0,1,2.9.91c1,.61,2.08,1.28,3.32,2a26.59,26.59,0,0,0,4.24,2,16.13,16.13,0,0,0,5.67.91,10.75,10.75,0,0,0,6.86-2c1.63-1.29,2.45-3.35,2.45-6.16a5.87,5.87,0,0,0-1.34-4A10.51,10.51,0,0,0,290,93.37a31.49,31.49,0,0,0-5-1.78q-2.79-.77-5.71-1.7a41.34,41.34,0,0,1-5.71-2.31,17.81,17.81,0,0,1-5-3.6,16.77,16.77,0,0,1-3.53-5.56,22.08,22.08,0,0,1-1.34-8.24,19.49,19.49,0,0,1,1.58-7.68A19.9,19.9,0,0,1,270,55.83a22.91,22.91,0,0,1,7.53-4.68,27.84,27.84,0,0,1,10.23-1.75,39,39,0,0,1,6.26.5,33.74,33.74,0,0,1,5.78,1.49,32.37,32.37,0,0,1,5.12,2.35,23.38,23.38,0,0,1,4.24,3.1Z"/><path class="cls-1" d="M347.29,107.29a15,15,0,0,0,5.83-1.08,11.71,11.71,0,0,0,4.34-3.1,13.61,13.61,0,0,0,2.71-4.92,21.25,21.25,0,0,0,.94-6.6V50.17h16.22V91.59a32.17,32.17,0,0,1-2.09,11.81,26.48,26.48,0,0,1-6,9.26,26.93,26.93,0,0,1-9.46,6,37.54,37.54,0,0,1-25.1,0,27.11,27.11,0,0,1-9.46-6,26.29,26.29,0,0,1-5.95-9.26,32.8,32.8,0,0,1-2.06-11.81V50.17h16.22V91.54a21.25,21.25,0,0,0,.94,6.6,13.92,13.92,0,0,0,2.71,5,11.64,11.64,0,0,0,4.34,3.12A14.94,14.94,0,0,0,347.29,107.29Z"/></svg>